<?xml version="1.0"?>
<svg xmlns:rdf="http://www.w3.org/1999/02/22-rdf-syntax-ns#" xmlns="http://www.w3.org/2000/svg" xmlns:cc="http://creativecommons.org/ns#" xmlns:xlink="http://www.w3.org/1999/xlink" xmlns:dc="http://purl.org/dc/elements/1.1/" id="svg2" viewBox="0 0 400 200" version="1.0">
  <defs id="defs4">
    <linearGradient id="linearGradient3293">
      <stop id="stop3295" stop-color="#fff" offset="0"/>
      <stop id="stop3297" stop-color="#fff6d5" stop-opacity="0" offset="1"/>
    </linearGradient>
    <linearGradient id="linearGradient3205">
      <stop id="stop3207" stop-color="#fff6d5" offset="0"/>
      <stop id="stop3209" stop-color="#fff6d5" stop-opacity="0" offset="1"/>
    </linearGradient>
    <linearGradient id="linearGradient3171">
      <stop id="stop3173" stop-color="#ff0" offset="0"/>
      <stop id="stop3175" stop-color="#ff0" stop-opacity="0" offset="1"/>
    </linearGradient>
    <linearGradient id="linearGradient3177" y2="650.22" xlink:href="#linearGradient3171" gradientUnits="userSpaceOnUse" x2="457.14" y1="765.22" x1="529.29"/>
    <linearGradient id="linearGradient3181" y2="571.65" xlink:href="#linearGradient3171" gradientUnits="userSpaceOnUse" x2="443.57" y1="826.65" x1="475.71"/>
    <linearGradient id="linearGradient3191" y2="704.5" gradientUnits="userSpaceOnUse" x2="422.86" y1="584.51" x1="370.71">
      <stop id="stop3187" stop-color="#a05a2c" offset="0"/>
      <stop id="stop3189" stop-color="#a05a2c" stop-opacity="0" offset="1"/>
    </linearGradient>
    <linearGradient id="linearGradient3201" y2="638.79" xlink:href="#linearGradient3205" gradientUnits="userSpaceOnUse" x2="460" y1="689.51" x1="295"/>
    <linearGradient id="linearGradient3211" y2="834.51" xlink:href="#linearGradient3205" gradientUnits="userSpaceOnUse" x2="370" y1="601.65" x1="468.57"/>
    <linearGradient id="linearGradient3221" y2="675.93" gradientUnits="userSpaceOnUse" x2="407.86" y1="780.22" x1="485">
      <stop id="stop3217" stop-color="#fff6d5" offset="0"/>
      <stop id="stop3219" stop-color="#fff6d5" stop-opacity="0" offset="1"/>
    </linearGradient>
    <linearGradient id="linearGradient3225" y2="717.36" xlink:href="#linearGradient3205" gradientUnits="userSpaceOnUse" x2="489.29" y1="566.65" x1="591.43"/>
    <radialGradient id="radialGradient3243" gradientUnits="userSpaceOnUse" cy="725.69" cx="355.01" gradientTransform="matrix(1.1152 0 0 5.8747 -44.484 -3477.1)" r="24.786">
      <stop id="stop3239" stop-color="#f4eed7" offset="0"/>
      <stop id="stop3241" stop-color="#f4eed7" stop-opacity="0" offset="1"/>
    </radialGradient>
    <linearGradient id="linearGradient3247" y2="740.93" gradientUnits="userSpaceOnUse" x2="353.57" y1="743.08" x1="377.86">
      <stop id="stop3251" stop-color="#d4aa00" offset="0"/>
      <stop id="stop3253" stop-color="#fff6d5" stop-opacity="0" offset="1"/>
    </linearGradient>
    <linearGradient id="linearGradient3263" y2="715.93" gradientUnits="userSpaceOnUse" x2="340" y1="685.22" x1="370">
      <stop id="stop3259" stop-color="#b79024" offset="0"/>
      <stop id="stop3261" stop-color="#b79024" stop-opacity="0" offset="1"/>
    </linearGradient>
    <linearGradient id="linearGradient3272" y2="755.22" xlink:href="#linearGradient3205" gradientUnits="userSpaceOnUse" x2="427.14" y1="604.51" x1="420"/>
    <linearGradient id="linearGradient3291" y2="665.93" xlink:href="#linearGradient3293" gradientUnits="userSpaceOnUse" x2="394.29" y1="600.22" x1="410"/>
    <linearGradient id="linearGradient3307" y2="668.08" gradientUnits="userSpaceOnUse" x2="235.71" y1="794.51" x1="111.43">
      <stop id="stop3303" stop-color="#fff6d5" offset="0"/>
      <stop id="stop3305" stop-color="#fff6d5" stop-opacity="0" offset="1"/>
    </linearGradient>
    <linearGradient id="linearGradient3311" y2="750.22" xlink:href="#linearGradient3293" gradientUnits="userSpaceOnUse" x2="345.71" y1="626.65" x1="334.29"/>
    <linearGradient id="linearGradient3315" y2="852.36" spreadMethod="repeat" gradientUnits="userSpaceOnUse" x2="519.29" y1="768.79" x1="482.86">
      <stop id="stop3319" stop-color="#fff6d5" stop-opacity=".18803" offset="0"/>
      <stop id="stop3321" stop-color="#fff6d5" stop-opacity="0" offset="1"/>
    </linearGradient>
    <linearGradient id="linearGradient3325" y2="870.22" spreadMethod="repeat" gradientUnits="userSpaceOnUse" x2="144.29" y1="715.58" x1="147.14">
      <stop id="stop3329" stop-color="#fff6d5" stop-opacity=".42308" offset="0"/>
      <stop id="stop3331" stop-color="#fff6d5" stop-opacity="0" offset="1"/>
    </linearGradient>
    <linearGradient id="linearGradient3341" y2="679.86" spreadMethod="reflect" gradientUnits="userSpaceOnUse" x2="357.5" y1="771.29" x1="317.14">
      <stop id="stop3337" stop-color="#dfc33c" offset="0"/>
      <stop id="stop3339" stop-color="#776614" stop-opacity="0" offset="1"/>
    </linearGradient>
    <linearGradient id="linearGradient3359" y2="750.93" gradientUnits="userSpaceOnUse" x2="339.29" y1="750.22" x1="313.57">
      <stop id="stop3355" stop-color="#ffd01b" offset="0"/>
      <stop id="stop3357" stop-color="#504416" stop-opacity="0" offset="1"/>
    </linearGradient>
    <radialGradient id="radialGradient3369" gradientUnits="userSpaceOnUse" cy="697.8" cx="340.42" r="43.437">
      <stop id="stop3365" stop-color="#fff" offset="0"/>
      <stop id="stop3367" stop-color="#fff" stop-opacity="0" offset="1"/>
    </radialGradient>
    <radialGradient id="radialGradient3385" gradientUnits="userSpaceOnUse" cy="798.01" cx="349.29" gradientTransform="matrix(.88919 -.19289 .039777 .18336 6.9615 598.45)" r="174.04">
      <stop id="stop3381" stop-color="#fff" offset="0"/>
      <stop id="stop3383" stop-color="#fff" stop-opacity="0" offset="1"/>
    </radialGradient>
    <linearGradient id="linearGradient3395" y2="776.65" gradientUnits="userSpaceOnUse" x2="350.79" y1="670.93" x1="350.79">
      <stop id="stop3391" stop-color="#fff" offset="0"/>
      <stop id="stop3393" stop-color="#fff" stop-opacity="0" offset="1"/>
    </linearGradient>
    <linearGradient id="linearGradient3405" y2="705.22" gradientUnits="userSpaceOnUse" x2="344.29" y1="895.22" x1="-12.857">
      <stop id="stop3401" stop-color="#fff" offset="0"/>
      <stop id="stop3403" stop-color="#fff" stop-opacity="0" offset="1"/>
    </linearGradient>
    <filter id="filter3592">
      <feGaussianBlur id="feGaussianBlur3594" stdDeviation="2.1743657"/>
    </filter>
  </defs>
  <g id="layer1" transform="translate(-167.14 -419.04)">
    <path id="path3554" filter="url(#filter3592)" d="m170 552.36l138.57 60s18.57 11.43 50-4.28c31.43-15.72 204.29-108.57 204.29-108.57s12.85-5.72-25.72-5.72c-100 0-288.57 31.43-298.57 31.43s-58.57 22.86-58.57 22.86-8.57-2.86-10 4.28z" fill="#5f5705" fill-rule="evenodd"/>
    <g id="g3407" transform="translate(-11.285 -180.4)">
      <path id="rect2383" d="m222.14 632.96l217.87-32.1 111.66 10.14-203.93 48.64-125.6-26.68z" fill="#c0a421" fill-rule="evenodd"/>
      <path id="path2387" d="m222.5 633.08l-12.86 12.85 127.5 32.15 8.57-19.65-123.21-25.35z" fill="#c0a421" fill-rule="evenodd"/>
      <path id="path2389" d="m337.06 678.08c0-5.72 7.64-18.74 7.64-18.74l7.15-1.18 10.34 19.92h-25.13z" fill="#fff6d5" fill-rule="evenodd"/>
      <path id="path2391" d="m361.43 678.08l196.62-58.42-6.62-8.73-200 47.15 10 20z" fill="#c0a421" fill-rule="evenodd"/>
      <path id="path2393" d="m210 645.93l-24.29 81.43 1.43 5.72 134.29 52.14 16.07-107.14-127.5-32.15z" fill="#c0a421" fill-rule="evenodd"/>
      <path id="path3323" d="m210 645.93l-24.29 81.43 1.43 5.72 134.29 52.14 16.07-107.14-127.5-32.15z" fill="url(#linearGradient3325)" fill-rule="evenodd"/>
      <path id="path2395" d="m337.5 677.36l-16.07 107.5s31.43 4.65 48.57-3.93c-1.43-22.85-9.29-103.21-9.29-103.21l-23.21-0.36z" fill="#c0a421" fill-rule="evenodd"/>
      <path id="path2397" d="m370 780.93l201.43-103.57-13.22-58-197.5 58 9.29 103.57z" fill="#c0a421" fill-rule="evenodd"/>
      <path id="path3169" d="m370 780.93l201.43-103.57-13.22-58-197.5 58 9.29 103.57z" fill="url(#linearGradient3177)" fill-rule="evenodd"/>
      <path id="path3179" d="m361.43 678.08l196.62-58.42-6.62-8.73-200 47.15 10 20z" fill="url(#linearGradient3181)" fill-rule="evenodd"/>
      <path id="path3183" d="m370 780.93l201.43-103.57-13.22-58-197.5 58 9.29 103.57z" fill="url(#linearGradient3191)" fill-rule="evenodd"/>
      <path id="path3193" d="m361.43 678.08l196.62-58.42-6.62-8.73-200 47.15 10 20z" fill="url(#linearGradient3201)" fill-rule="evenodd"/>
      <path id="path3203" d="m222.14 632.96l217.87-32.1 111.66 10.14-203.93 48.64-125.6-26.68z" fill="url(#linearGradient3211)" fill-rule="evenodd"/>
      <path id="path3213" d="m370 780.93l201.43-103.57-13.22-58-197.5 58 9.29 103.57z" fill="url(#linearGradient3221)" fill-rule="evenodd"/>
      <path id="path3223" d="m361.43 678.08l196.62-58.42-6.62-8.73-200 47.15 10 20z" fill="url(#linearGradient3225)" fill-rule="evenodd"/>
      <path id="path3227" d="m337.5 677.36l-16.07 107.5s31.43 4.65 48.57-3.93c-1.43-22.85-9.29-103.21-9.29-103.21l-23.21-0.36z" fill="url(#radialGradient3243)" fill-rule="evenodd"/>
      <path id="path3245" d="m337.5 677.36l-16.07 107.5s31.43 4.65 48.57-3.93c-1.43-22.85-9.29-103.21-9.29-103.21l-23.21-0.36z" fill="url(#linearGradient3247)" fill-rule="evenodd"/>
      <path id="path3255" d="m337.5 677.36l-16.07 107.5s31.43 4.65 48.57-3.93c-1.43-22.85-9.29-103.21-9.29-103.21l-23.21-0.36z" fill="url(#linearGradient3263)" fill-rule="evenodd"/>
      <path id="path3265" d="m383.84 670.59l-23.12 6.79 9.28 103.56 141.25-72.63c-51.37-4.82-96.2-18.53-127.41-37.72z" fill="url(#linearGradient3272)" fill-rule="evenodd"/>
      <path id="path3284" d="m361.43 678.08l128.05-38.42-48.77-2.3-89.28 20.72 10 20z" fill="url(#linearGradient3225)" fill-rule="evenodd"/>
      <path id="path3286" d="m309.66 621.66c-3.95 0-7.85 0.06-11.72 0.15l-75.78 11.16 125.59 26.65 81.66-19.46c-26.97-11.22-70.56-18.5-119.75-18.5z" fill="url(#linearGradient3291)" fill-rule="evenodd"/>
      <path id="path3299" d="m210 645.93l-24.29 81.43 1.43 5.72 134.29 52.14 16.07-107.14-127.5-32.15z" fill="url(#linearGradient3307)" fill-rule="evenodd"/>
      <path id="path3309" d="m222.5 633.08l-12.86 12.85 127.5 32.15 8.57-19.65-123.21-25.35z" fill="url(#linearGradient3311)" fill-rule="evenodd"/>
      <path id="path3313" d="m370 780.93l201.43-103.57-13.22-58-197.5 58 9.29 103.57z" fill="url(#linearGradient3315)" fill-rule="evenodd"/>
      <path id="path3333" d="m210 645.93l-24.29 81.43 1.43 5.72 134.29 52.14 16.07-107.14-127.5-32.15z" fill="url(#linearGradient3341)" fill-rule="evenodd"/>
      <path id="path3351" d="m337.5 677.36l-16.07 107.5s31.43 4.65 48.57-3.93c-1.43-22.85-9.29-103.21-9.29-103.21l-23.21-0.36z" fill="url(#linearGradient3359)" fill-rule="evenodd"/>
      <path id="path3361" d="m383.86 697.8a43.437 43.437 0 1 1 -86.88 0 43.437 43.437 0 1 1 86.88 0z" fill="url(#radialGradient3369)" transform="matrix(.33289 .35912 -.66048 .69147 689.49 66.274)" fill-rule="evenodd"/>
      <path id="path3371" d="m383.86 697.8a43.437 43.437 0 1 1 -86.88 0 43.437 43.437 0 1 1 86.88 0z" fill="url(#radialGradient3369)" transform="matrix(-.29262 .39263 -.80001 -.52377 999.8 902.86)" fill-rule="evenodd"/>
      <path id="path3377" d="m557.14 618.79l-195.71 60s-12.86 2.86-21.43 0.72c-8.57-2.15-127.14-32.15-127.14-32.15" stroke="url(#radialGradient3385)" stroke-width="3.8" fill="none"/>
      <path id="path3387" d="m342.14 681.65s12.86 0 16.43-0.72c3.57-0.71-5 104.29-5 104.29h-7.86s-1.42-97.14-3.57-103.57z" fill="url(#linearGradient3395)" fill-rule="evenodd"/>
      <path id="path3397" d="m215.71 742.36l128.58-28.57v-30l-48.58-15.71-100 68.57 20 5.71z" fill="url(#linearGradient3405)" fill-rule="evenodd"/>
    </g>
  </g>
  <metadata>
    <rdf:RDF>
      <cc:Work>
        <dc:format>image/svg+xml</dc:format>
        <dc:type rdf:resource="http://purl.org/dc/dcmitype/StillImage"/>
        <cc:license rdf:resource="http://creativecommons.org/licenses/publicdomain/"/>
        <dc:publisher>
          <cc:Agent rdf:about="http://openclipart.org/">
            <dc:title>Openclipart</dc:title>
          </cc:Agent>
        </dc:publisher>
      </cc:Work>
      <cc:License rdf:about="http://creativecommons.org/licenses/publicdomain/">
        <cc:permits rdf:resource="http://creativecommons.org/ns#Reproduction"/>
        <cc:permits rdf:resource="http://creativecommons.org/ns#Distribution"/>
        <cc:permits rdf:resource="http://creativecommons.org/ns#DerivativeWorks"/>
      </cc:License>
    </rdf:RDF>
  </metadata>
</svg>
