<?xml version="1.0" standalone="no"?>
<!DOCTYPE svg PUBLIC "-//W3C//DTD SVG 20010904//EN"
 "http://www.w3.org/TR/2001/REC-SVG-20010904/DTD/svg10.dtd">
<svg version="1.0" xmlns="http://www.w3.org/2000/svg"
 width="1280.000000pt" height="1052.000000pt" viewBox="0 0 1280.000000 1052.000000"
 preserveAspectRatio="xMidYMid meet">
<metadata>
Created by potrace 1.15, written by Peter Selinger 2001-2017
</metadata>
<g transform="translate(0.000000,1052.000000) scale(0.100000,-0.100000)"
fill="#000000" stroke="none">
<path d="M11 10486 c2 -19 0 -38 -4 -42 -9 -10 -9 -8229 1 -8238 4 -4 7 -24 7
-44 l0 -37 2798 0 2797 0 0 -657 0 -658 -121 0 c-110 0 -124 -2 -163 -25 -24
-14 -67 -30 -97 -35 -30 -6 -693 -67 -1474 -135 -781 -68 -1452 -129 -1492
-134 -117 -17 -174 -44 -237 -112 -142 -153 -141 -154 40 -195 76 -17 263 -59
414 -94 314 -71 292 -70 680 -31 187 19 298 30 875 86 143 14 350 34 460 45
110 11 317 31 460 45 143 14 332 32 420 41 165 17 352 15 590 -5 141 -13 745
-13 895 -1 360 30 296 34 1723 -109 720 -72 1334 -131 1365 -131 31 0 86 7
122 16 36 8 225 51 420 95 406 91 390 87 390 100 0 16 -118 156 -155 185 -75
57 -70 56 -1629 194 -809 71 -1491 132 -1516 136 -24 3 -67 18 -95 32 -42 23
-66 28 -158 32 l-107 5 0 653 0 652 2782 3 2783 2 0 37 c0 20 3 40 7 44 10 9
10 8228 1 8238 -4 4 -6 23 -4 42 l3 34 -6392 0 -6392 0 3 -34z"/>
</g>
</svg>
